<svg width="120" height="120" viewBox="0 0 120 120" fill="none" xmlns="http://www.w3.org/2000/svg">
  <path
    d="M100 26C100 29.3137 97.3137 32 94 32C90.6863 32 88 29.3137 88 26C88 22.6863 90.6863 20 94 20C97.3137 20 100 22.6863 100 26Z"
    fill="#FBA386"
  />
  <path
    d="M96 42C98.2091 42 100 43.7909 100 46C100 48.2091 98.2091 50 96 50H24C21.7909 50 20 48.2091 20 46C20 43.7909 21.7909 42 24 42H96Z"
    fill="#FBA386"
  />
  <path
    d="M42 24C42 21.7909 43.7909 20 46 20C48.2091 20 50 21.7909 50 24V96C50 98.2091 48.2091 100 46 100C43.7909 100 42 98.2091 42 96V24Z"
    fill="#E1714C"
  />
  <path
    d="M70 24C70 21.7909 71.7909 20 74 20C76.2091 20 78 21.7909 78 24V96C78 98.2091 76.2091 100 74 100C71.7909 100 70 98.2091 70 96V24Z"
    fill="#E1714C"
  />
  <path
    d="M96 70C98.2091 70 100 71.7909 100 74C100 76.2091 98.2091 78 96 78H24C21.7909 78 20 76.2091 20 74C20 71.7909 21.7909 70 24 70H96Z"
    fill="#FBA386"
  />
</svg>
